<svg width="6220" height="8228" viewBox="0 0 6220 8228" fill="none" xmlns="http://www.w3.org/2000/svg">
<path d="M4196.21 1874.41C3767.98 1847.35 3333.71 1647.85 3135.14 1512.53C2675.42 1199.25 1917.09 1134.79 1412.67 1432.46C-891.564 2792.27 54.9567 4271.32 1214.96 3824.93C1896.15 3562.79 2036.94 2977.85 2629.21 2792.27C3210.16 2610.24 3961.37 3277.88 4533.78 3192.05C5106.19 3106.21 5323.76 2538.64 5130.37 2268.77C4936.97 1998.91 4624.44 1901.48 4196.21 1874.41Z" fill="#D6F3EB" fill-opacity="0.25"/>
<path d="M4446.79 1737.45C4019.68 1709.68 3594.29 1737.45 3259.2 1626.35C2577.95 1400.49 1766.56 1174.6 1072.04 1521.97C-85.2128 2100.77 203.18 3583.91 1425.1 3466.2C1945.2 3416.09 2152.67 3050.8 2754.59 2939.7C3356.5 2828.6 3875.88 3056.35 4446.79 2968.27C5017.71 2880.18 5215.34 2385.01 5110.71 2135.03C5006.08 1885.05 4873.9 1765.23 4446.79 1737.45Z" fill="#D6F3EB" fill-opacity="0.25"/>
<path d="M1485.33 6444.91C1141.83 6952.79 1940.51 7392.6 2351.83 7451.62C3162.51 7567.94 3750.16 7114.08 4325.05 7072.05C5265.75 7003.28 5874.5 7250.16 6070.89 6771.25C6294.32 6226.42 5434.3 5795.15 4687.14 5475.39C3499.1 4966.96 3228.28 5511.52 3150.42 5670.96C3072.56 5830.41 3031.2 5949.75 2804.88 6082.27C2578.57 6214.79 1842.32 5917.08 1485.33 6444.91Z" fill="#D6F3EB" fill-opacity="0.25"/>
<path d="M1488.9 6244.52C1120.88 6734.93 1897.02 7213.4 2304.94 7292.54C3108.93 7448.52 3718.15 7024.05 4294.41 7010.29C5237.35 6987.78 5833.26 7264.24 6052.92 6795.55C6302.82 6262.34 5465 5789.37 4734.44 5433.33C3572.79 4867.2 3275.56 5397.8 3189.97 5553.23C3104.38 5708.66 3057.21 5825.83 2824.66 5947.08C2592.11 6068.34 1871.37 5734.85 1488.9 6244.52Z" fill="#D6F3EB" fill-opacity="0.25"/>
<path d="M1515.98 2938.35C1373.31 2770.38 1003.96 2634.14 785.972 2938.35C440.884 3419.94 904.484 3742.44 1019.22 4102.55C1173.28 4586.09 869.868 4868.17 1005.48 5020.28C1141.1 5172.39 1459.3 4996.36 1884.29 5199.35C2667.58 5573.47 2907.32 5079.8 2745.3 4741.25C2637.93 4516.9 2151.62 4411.03 2005.11 4272.72C1689.2 3974.5 1761.18 3227.05 1515.98 2938.35Z" stroke="#FFF2B6" stroke-width="100"/>
<path d="M1623.32 2930.72C1408.55 2621.43 948.166 2560.31 734.593 2844.75C320.344 3396.45 801.539 3807.75 936.807 4147.57C1072.08 4487.4 787.753 4878.6 919.511 5070.64C1068.04 5287.12 1478.17 5110.23 1812.57 5271.33C2612.01 5656.47 2961.57 5233.94 2871.71 4813.99C2835.85 4646.37 2755.73 4511.31 2182.15 4273.74C1790.69 4111.6 1880.14 3300.56 1623.32 2930.72Z" stroke="#D5ECE1" stroke-width="100"/>
<path d="M1699.96 2869.69C1478.38 2545.01 1050.49 2485.56 808.221 2649.46C450.448 2891.49 336.019 3423.68 725.128 3947.91C1097.33 4449.36 624.631 4837.14 844.656 5133.06C1054.89 5415.81 1381.94 5178.74 1864.08 5383.81C2691.59 5735.79 3035.27 5262.68 2959.72 4814.5C2891.8 4411.53 2504.76 4324.95 2280.75 4224.56C2056.75 4124.17 1980.34 3870.32 1955.91 3744.57C1899.26 3452.97 1860.93 3105.56 1699.96 2869.69Z" stroke="#FFCFAC" stroke-width="100"/>
<path d="M2782.43 107.058C2619.4 92.3904 2466.33 39.7605 2413.4 0H4302.05C4302.84 35.6861 4267.93 119.302 4121.95 168.28C3939.48 229.501 3738.06 165.224 3546.12 107.058C3354.18 48.8927 2986.21 125.393 2782.43 107.058Z" fill="#D6F3EB" fill-opacity="0.25"/>
</svg>
