<svg width="204" height="72" viewBox="0 0 204 72" fill="none" xmlns="http://www.w3.org/2000/svg">
<path fill-rule="evenodd" clip-rule="evenodd" d="M20.5142 8.43297C16.7183 6.08637 12.7706 5.8664 8.67109 7.77301C2.52176 10.6329 2.06626 16.5727 3.3189 18.4426C4.15399 19.6893 5.21684 20.9359 6.50743 22.1825C4.22991 23.1358 3.24298 24.3458 3.54665 25.8124C4.00216 28.0123 10.3792 35.2722 14.3649 35.382C18.3506 35.492 21.1975 33.952 21.9946 31.7522C22.526 30.2856 22.9815 29.4056 23.3611 29.1123C27.3088 37.692 31.9018 41.7619 37.1403 41.322C42.3784 40.8818 45.5671 38.2505 46.7057 33.4278C49.0591 40.8171 52.9311 44.0351 58.3212 43.0818C63.7113 42.1285 66.4443 38.9105 66.5201 33.4278H68.2284L69.1395 41.2119L77.6802 39.0119L77.4524 32.0821C80.4132 31.4955 82.9564 30.1756 85.082 28.1223C87.2079 26.0691 88.6122 24.0158 89.2954 21.9625C90.0548 26.3453 90.7381 29.3519 91.3451 30.9822C92.2562 33.4278 94.8753 33.292 97.2668 31.5322C99.6583 29.7723 99.9998 29.7723 100.228 27.7923C100.379 26.4724 100.379 25.2258 100.228 24.0524C101.974 27.5723 104.896 28.7456 108.996 27.5723C115.145 25.8124 117.878 25.4824 119.587 24.0524C121.295 22.6225 122.434 21.3025 121.409 19.9826C120.725 19.1026 119.738 18.6993 118.448 18.7726L123.8 14.0428C124.18 18.0027 124.559 20.5692 124.939 21.7425C125.508 23.5025 129.608 23.7225 132.113 22.8425C134.618 21.9625 134.618 21.8525 134.163 19.3226C133.859 17.636 134.049 16.3894 134.732 15.5827C138.206 20.6736 142.344 23.2768 147.145 23.3925C152.514 23.5218 156.727 21.3219 159.785 16.7927C161.265 21.6392 164.643 24.7191 169.92 26.0324C174.935 27.2806 179.225 26.364 182.788 23.2825C189.77 31.2649 195.806 33.868 200.894 31.0922C203.572 29.6316 203.496 25.2684 200.667 18.0027L202.716 10.9629C197.584 7.98703 193.94 6.44706 191.784 6.34303C188.112 6.16579 185.164 7.95543 183.751 10.6259C183.67 7.81586 181.274 5.6981 176.875 4.84161C170.697 3.63865 177.635 18.8462 172.653 19.2126C170.549 19.3674 169.751 14.3809 170.261 4.25311L161.265 3.92312L160.127 12.0628C157.523 5.72588 153.195 2.93932 147.145 3.70312C141.504 4.41521 137.29 7.42178 134.504 12.7228L134.049 5.35308L124.483 7.33301L124.028 10.1929C119.65 8.04726 115.361 7.46062 111.16 8.43297C104.871 9.88848 101.227 13.555 100.228 19.4326L98.7472 9.86292L89.7511 10.0829C89.9019 15.8929 89.105 17.3595 87.3596 14.4828C83.9542 8.8692 77.3112 6.04597 67.4312 6.01304L68.0006 22.0725L65.6093 22.8425L62.7624 19.1026L65.1536 7.22302C61.8939 4.18378 60.395 1.38468 53.766 1.2832C49.187 2.0617 46.8799 9.71768 46.1364 9.64292C43.8521 2.12365 41.4117 2.7464 39.4175 2.60316C30.7608 1.87669 39.8072 27.3591 35.2041 30.6522C32.4893 30.4188 31.7466 11.4545 30.9908 3.59313C27.3158 4.36981 22.7815 5.26072 22.7917 5.46306C22.1797 8.07089 22.507 21.5959 22.3362 21.7425L18.2367 17.8927" fill="#FAE998"/>
<path fill-rule="evenodd" clip-rule="evenodd" d="M42.7862 47.3609C47.6449 48.8275 52.6555 49.3409 57.8179 48.9009C65.5614 48.2409 71.1414 45.931 72.5079 46.3709C73.4189 46.6643 74.1402 47.2142 74.6714 48.0209L75.3547 45.931L91.1836 40.7611L92.8918 49.8908C94.4859 44.4643 97.4089 39.9545 101.66 36.3613C108.037 30.9715 117.148 30.8615 120.108 31.6314C122.082 32.1448 123.828 32.7314 125.346 33.3914L121.475 46.3709C122.082 46.5176 122.803 46.9942 123.638 47.8009C124.473 48.6075 125.081 49.2675 125.46 49.7808V45.931L128.307 45.161L128.763 29.7615C131.192 29.3215 133.849 28.9182 136.734 28.5515C139.619 28.1849 142.314 28.0749 144.819 28.2215L145.389 41.2011L148.805 40.7611C147.514 32.5481 148.273 28.3682 151.083 28.2215C155.296 28.0016 162.128 28.6028 164.065 34.957C165.355 39.1931 165.735 47.2876 165.203 59.2406C163.078 59.3138 160.458 59.8637 157.346 60.8903C154.233 61.9172 151.424 62.907 148.919 63.8603L147.325 55.6107C146.49 55.8306 146.148 57.3339 146.3 60.1206C146.452 62.907 144.857 64.9605 141.517 66.2804C142.276 66.2068 141.441 66.4269 139.012 66.9404C135.368 67.7104 130.926 68.2603 130.016 66.0603C129.408 64.5936 128.421 61.7339 127.055 57.4806C126.599 62.1738 124.853 65.5104 121.816 67.4903C117.261 70.4603 113.819 71.5601 108.607 71.1203C103.395 70.6801 95.6248 66.5002 94.8276 65.1803C94.0305 63.8603 92.7779 59.2406 94.9416 57.3706C96.3839 56.124 97.1811 55.464 97.3328 55.3907L92.3225 51.1008C92.2464 54.034 92.4742 57.3339 93.0058 61.0004C93.8026 66.5002 95.283 68.4801 90.1589 69.1401C85.0344 69.8003 80.2516 67.6003 78.4294 66.2804C76.6076 64.9605 75.9243 58.2506 75.9243 54.6207C75.9243 52.2007 75.9243 50.9175 75.9243 50.7708C75.7723 51.5041 74.8234 52.2741 73.0773 53.0807C71.3312 53.8874 69.9647 54.2907 68.9777 54.2907C70.7997 54.8773 71.8246 55.8673 72.0524 57.2606C72.394 59.3506 71.9385 60.5605 69.3194 61.1104C67.5733 61.477 64.8023 61.367 61.0064 60.7806C61.386 61.8804 61.5758 63.0538 61.5758 64.3005C61.5758 66.1704 53.9461 64.7404 51.4408 63.8603C48.9355 62.9803 45.8608 61.1104 44.9498 59.6804C44.3425 58.7272 44.0768 56.3073 44.1527 52.4207L42.2168 51.6508C42.2168 51.6508 42.4066 50.2208 42.7862 47.3609Z" fill="#FAE998"/>
<path fill-rule="evenodd" clip-rule="evenodd" d="M4.43462 11.5664C3.51608 13.9981 3.60113 16.2655 4.68977 18.3686C6.32274 21.5233 12.5994 24.8751 11.885 24.9737C11.1706 25.0723 6.06759 21.9669 5.09802 21.5233C4.12844 21.0797 2.39341 20.1431 2.18929 18.3193C1.98517 16.4956 2.13826 13.6366 2.59754 12.8973C3.05681 12.1579 3.05681 12.1579 4.43462 11.5664Z" fill="#C5A218"/>
<path fill-rule="evenodd" clip-rule="evenodd" d="M10.31 16.4102C10.0881 15.9817 11.6628 15.7559 13.3639 15.7559C15.0649 15.7559 16.5617 15.7723 17.8545 15.8052L17.7014 19.2556C15.354 18.1383 13.8401 17.4646 13.1597 17.2346C12.1391 16.8896 11.7389 16.8538 10.31 16.4102Z" fill="#C5A218"/>
<path fill-rule="evenodd" clip-rule="evenodd" d="M23.3514 6.22699C23.3946 17.5706 24.7762 25.9115 27.4963 31.2497C31.5764 39.2569 39.5422 40.0749 41.6147 37.9433C42.9962 36.5221 42.6941 37.6689 40.708 41.3839C37.7289 42.1762 35.1168 42.0511 32.8716 41.0085C29.5039 39.4447 24.841 37.0675 23.8695 31.6875C22.8981 26.3077 21.6676 14.9224 21.9266 12.3576C22.0993 10.6477 22.1641 8.49989 22.1209 5.91421C22.1641 5.87251 22.5743 5.97677 23.3514 6.22699Z" fill="#C5A218"/>
<path fill-rule="evenodd" clip-rule="evenodd" d="M32.0957 28.8101C32.2252 29.6234 32.4843 31.938 34.5567 32.3134C36.6291 32.6887 38.3777 31.3749 37.7949 25.8074C37.212 20.2399 36.3053 17.8002 36.0463 14.86C35.7872 11.9198 35.9815 23.743 35.9167 25.4946C35.852 27.2462 36.0463 29.0604 35.3339 29.7485C34.6215 30.4366 32.8729 31.3749 32.0957 28.8101Z" fill="#C5A218"/>
<path fill-rule="evenodd" clip-rule="evenodd" d="M47.5744 6.97803C46.6245 11.9826 47.1642 16.3198 49.1935 19.9898C52.2373 25.4948 54.1802 25.5574 55.7346 27.1213C57.2889 28.6852 57.0298 29.6236 55.346 28.6227C53.6621 27.6218 50.9421 25.9326 49.5173 24.9943C48.0925 24.0561 45.502 21.6163 45.502 19.6145C45.502 17.6127 45.502 17.6127 47.5744 6.97803Z" fill="#C5A218"/>
<path fill-rule="evenodd" clip-rule="evenodd" d="M55.1509 15.1728C54.8901 14.6963 57.3744 15.0685 58.5833 15.2353C59.7922 15.4022 60.85 15.7149 61.7567 16.1737L61.4329 19.239C59.7059 17.9878 58.4106 17.112 57.5471 16.6116C56.2518 15.8609 56.2518 15.8609 55.1509 15.1728Z" fill="#C5A218"/>
<path fill-rule="evenodd" clip-rule="evenodd" d="M68.1682 21.3032C69.8088 22.4292 71.5574 23.0548 73.414 23.1799C75.2705 23.305 76.4147 23.3467 76.8464 23.305V23.8055C75.4216 24.2225 73.6893 24.8486 71.7464 24.7652C69.8035 24.6818 68.1977 24.3368 66.9377 24.1183C66.8945 24.0349 67.3046 23.0965 68.1682 21.3032Z" fill="#C5A218"/>
<path fill-rule="evenodd" clip-rule="evenodd" d="M66.6465 30.9783C67.3589 31.2911 69.8537 31.25 72.768 31.1875C74.7109 31.1458 76.3732 30.9789 77.7548 30.687L76.6538 32.0633C74.4519 32.0633 72.5953 32.2926 71.0842 32.7514C69.573 33.2101 68.6663 33.6689 68.3641 34.1276C68.2778 34.1276 67.6827 32.9801 66.6465 30.9783Z" fill="#C5A218"/>
<path fill-rule="evenodd" clip-rule="evenodd" d="M90.1223 13.9219C90.7268 20.1358 91.4392 24.348 92.2595 26.5583C93.49 29.8738 94.7853 30.5619 96.3396 30.3117C97.3758 30.1449 98.0019 30.0406 98.2177 29.9989C97.1383 31.0415 96.0806 31.8547 95.0443 32.4386C93.49 33.3145 92.4538 34.0025 91.4176 33.1893C90.3814 32.3762 89.8633 27.0588 89.8633 25.6825C89.8633 24.3063 89.8633 24.3063 90.1223 13.9219Z" fill="#C5A218"/>
<path fill-rule="evenodd" clip-rule="evenodd" d="M101.718 15.3604C101.847 20.3649 102.711 23.5553 104.308 24.9315C106.705 26.9959 110.072 26.7457 111.691 26.3078C113.311 25.8699 112.21 27.4963 111.173 27.684C110.137 27.8717 106.057 28.9977 103.855 27.3087C101.653 25.6196 100.228 24.2434 100.293 22.2416C100.358 20.2398 100.358 20.2398 101.718 15.3604Z" fill="#C5A218"/>
<path fill-rule="evenodd" clip-rule="evenodd" d="M114.734 21.3033C116.461 20.6778 117.649 20.5526 118.296 20.928C118.944 21.3033 118.599 22.471 117.26 24.4312C119.246 23.2634 120.326 22.3459 120.498 21.6787C120.757 20.6778 120.498 19.1138 119.397 18.9887C118.296 18.8636 118.296 18.8636 114.734 21.3033Z" fill="#C5A218"/>
<path fill-rule="evenodd" clip-rule="evenodd" d="M110.849 15.4858C111.194 14.6517 111.777 14.1513 112.597 13.9845C113.828 13.7342 114.087 14.4849 113.957 15.7361C113.871 16.5701 113.763 17.2374 113.633 17.7379L112.079 17.1749C111.993 17.1749 111.583 16.6118 110.849 15.4858Z" fill="#C5A218"/>
<path fill-rule="evenodd" clip-rule="evenodd" d="M125.097 7.54102C125.054 12.3787 125.421 15.8819 126.198 18.0505C127.364 21.3035 128.788 22.2418 130.213 22.3044C131.163 22.3461 131.638 22.5129 131.638 22.8048L127.687 23.9934C125.917 23.91 124.838 23.3053 124.449 22.1793C123.866 20.4902 123.802 12.9834 124.126 11.2944C124.449 9.60539 124.449 9.60539 125.097 7.54102Z" fill="#C5A218"/>
<path fill-rule="evenodd" clip-rule="evenodd" d="M148.345 10.5438C148.647 9.75141 149.597 8.97987 151.194 8.2292C153.591 7.10318 153.72 7.35341 154.562 7.29085C155.123 7.24915 155.944 7.93727 157.023 9.35522C155.296 8.68795 153.634 8.81306 152.036 9.73057C149.64 11.1068 148.733 12.6707 148.669 13.6716C148.604 14.6725 148.604 14.6725 148.345 10.5438Z" fill="#C5A218"/>
<path fill-rule="evenodd" clip-rule="evenodd" d="M161.751 4.53834C161.621 5.28901 161.621 14.047 162.592 17.1122C163.564 20.1775 165.053 22.6798 167.45 24.056C169.047 24.9735 169.932 25.4323 170.105 25.4323C165.399 25.3072 162.355 23.7432 160.973 20.7405C158.901 16.2364 160.714 6.72781 160.585 5.53924C160.455 4.35067 160.455 4.35067 161.751 4.53834Z" fill="#C5A218"/>
<path fill-rule="evenodd" clip-rule="evenodd" d="M169.199 17.9252C169.264 18.9261 172.243 22.8046 174.639 20.1772C176.237 18.4257 176.021 14.2969 173.992 7.79102C174.639 13.3794 174.618 16.6324 173.927 17.5499C173.236 18.4674 172.588 19.0304 171.984 19.2389C171.595 19.0304 170.667 18.5925 169.199 17.9252Z" fill="#C5A218"/>
<path fill-rule="evenodd" clip-rule="evenodd" d="M185.001 9.85547C184.18 13.4421 184.763 16.0486 186.749 17.6751C189.728 20.1148 191.088 20.4276 192.513 21.8663C193.938 23.3052 193.355 23.3677 190.829 22.054C189.145 21.1782 187.462 20.0105 185.778 18.5509L183.835 16.2362C183.705 15.9026 184.094 13.7757 185.001 9.85547Z" fill="#C5A218"/>
<path fill-rule="evenodd" clip-rule="evenodd" d="M192.772 15.1729C193.895 15.2563 195.255 15.5273 196.853 15.9861C198.45 16.4448 199.465 16.8827 199.896 17.2998L199.249 19.3016C197.133 17.8002 195.665 16.8619 194.845 16.4865C193.614 15.9235 193.614 15.9235 192.772 15.1729Z" fill="#C5A218"/>
<path fill-rule="evenodd" clip-rule="evenodd" d="M43.4219 51.0238C43.7442 50.8681 44.9209 51.0549 46.9519 51.5843C48.9828 52.1136 51.2394 52.5029 53.7217 52.752C51.0783 52.6897 49.1763 52.752 48.0157 52.9388C46.8552 53.1257 45.888 53.5305 45.1143 54.1532C44.9532 53.9353 44.389 52.8921 43.4219 51.0238Z" fill="#C5A218"/>
<path fill-rule="evenodd" clip-rule="evenodd" d="M76.934 47.5205C77.5787 53.5926 78.433 57.6718 79.4968 59.7581C81.0926 62.8876 82.0113 64.429 84.4775 65.9703C86.1216 66.998 87.798 67.6674 89.5065 67.9788C86.0894 68.4771 83.2686 68.2436 81.0442 67.2782C77.7077 65.8302 76.8856 64.9896 76.5955 62.7942C76.3053 60.5989 76.3053 60.5989 76.934 47.5205Z" fill="#C5A218"/>
<path fill-rule="evenodd" clip-rule="evenodd" d="M96.8771 41.791C96.4387 42.638 95.1783 49.5723 99.398 51.9544C103.618 54.3364 108.605 55.448 109.92 55.9244C111.235 56.4009 112.002 57.1949 110.358 57.1949C108.714 57.1949 101.7 55.6068 100.165 55.2363C98.6308 54.8658 97.7539 54.4952 96.4387 52.8543C95.1235 51.2133 93.6986 49.3606 93.9726 47.7726C94.2466 46.1846 94.2466 46.1846 96.8771 41.791Z" fill="#C5A218"/>
<path fill-rule="evenodd" clip-rule="evenodd" d="M109.425 45.6552C108.767 45.7611 107.781 45.0729 109.863 44.173C111.251 43.5731 115.142 43.2555 121.536 43.2202L120.933 47.0844C116.805 46.0257 114.083 45.5317 112.768 45.6023C110.795 45.7081 110.795 45.7081 109.425 45.6552Z" fill="#C5A218"/>
<path fill-rule="evenodd" clip-rule="evenodd" d="M126.522 46.449C127.911 46.1314 130.011 45.5491 132.825 44.7022C135.638 43.8552 138.463 43.2174 141.167 42.5469C137.879 42.8645 135.272 43.0436 133.482 43.3259C131.692 43.6082 130.212 43.4494 129.043 42.8495L128.55 44.861C128.221 44.9668 127.545 45.4962 126.522 46.449Z" fill="#C5A218"/>
<path fill-rule="evenodd" clip-rule="evenodd" d="M126.688 52.5892C131.524 52.4352 136.372 51.8691 141.167 51.7588C136.066 52.83 132.935 53.6126 131.839 54.1772C130.743 54.7418 129.665 55.5182 128.606 56.5063C128.532 56.5769 127.893 55.2712 126.688 52.5892Z" fill="#C5A218"/>
<path fill-rule="evenodd" clip-rule="evenodd" d="M149.819 41.4759C144.519 41.9513 140.557 42.5434 137.851 43.1651C135.144 43.7867 130.967 45.5464 126.753 46.1891L126.919 52.1607V52.6269C129.636 52.4624 131.854 52.4624 135.04 52.4624C139.173 52.4624 145.997 50.8406 148.534 50.3006C151.072 49.7605 152.62 49.2204 147.588 48.5557C142.556 47.891 153.64 40.8792 149.819 41.4759Z" fill="#FFFCC9"/>
<path fill-rule="evenodd" clip-rule="evenodd" d="M159.976 38.6472C160.226 40.9901 160.333 43.419 160.297 45.9342C160.244 49.7069 160.725 54.6165 157.783 47.3295C154.84 40.0426 150.827 36.9417 152.486 32.9623C154.144 28.9829 159.655 33.1174 159.976 38.6472Z" fill="#FFFCC9"/>
<path fill-rule="evenodd" clip-rule="evenodd" d="M109.134 45.8091C114.499 45.9932 118.272 46.4405 120.451 47.1508C123.719 48.2163 125.476 54.8067 122.861 58.3979C120.246 61.9891 120.573 60.8841 119.674 56.0301C118.776 51.1761 116.365 48.8083 109.134 45.8091Z" fill="#FFFCC9"/>
<path fill-rule="evenodd" clip-rule="evenodd" d="M103.716 41.3341C106.458 37.4424 109.092 35.0863 111.616 34.2657C115.402 33.0349 120.718 33.1052 119.99 37.0087C119.261 40.9121 118.278 38.3098 114.674 37.5362C111.07 36.7625 107.284 37.3252 103.716 41.3341Z" fill="#FFFCC9"/>
<path fill-rule="evenodd" clip-rule="evenodd" d="M132.143 35.8117C131.878 34.1104 131.907 32.9182 132.231 32.235C132.718 31.2102 141.029 30.2707 138.553 31.1675C136.077 32.0642 133.69 33.3879 133.115 36.2489C132.541 39.1099 132.497 38.2782 132.143 35.8117Z" fill="#FFFCC9"/>
<path fill-rule="evenodd" clip-rule="evenodd" d="M89.6327 62.4171C89.5016 61.9105 88.6712 48.908 88.4526 46.5439C88.2341 44.1798 84.9125 45.8263 82.9895 47.346C81.0665 48.8658 85.3933 54.185 86.617 57.689C87.8408 61.1929 90.0697 67.1875 89.6327 62.4171Z" fill="#FFFCC9"/>
<path fill-rule="evenodd" clip-rule="evenodd" d="M43.1368 50.6876C44.024 51.1161 46.6505 52.1009 52.1949 52.479C60.5114 53.046 70.2629 50.3053 71.6001 49.2342C72.9373 48.1631 63.1532 48.9507 59.0111 49.0452C56.2498 49.1082 50.9229 48.4886 43.0304 47.1865C42.9652 47.2705 42.8541 48.2934 43.1368 50.6876Z" fill="#FFFCC9"/>
<path fill-rule="evenodd" clip-rule="evenodd" d="M197.702 18.1008C197.469 18.0191 195.693 17.0895 192.372 15.312C194.255 16.9056 195.82 18.3868 197.068 19.7556C198.94 21.8089 200.716 23.4025 199.701 21.3186C198.686 19.2347 198.686 19.2347 197.702 18.1008Z" fill="#FFFCC9"/>
<path fill-rule="evenodd" clip-rule="evenodd" d="M192.659 9.76514L188.376 10.5313Z" fill="#FFFCC9"/>
<path fill-rule="evenodd" clip-rule="evenodd" d="M192.658 9.76518C193.546 9.78561 194.709 10.1227 196.148 10.7765C198.305 11.7572 197.004 11.8184 193.546 11.7265C190.088 11.6346 188.66 13.8717 188.755 12.5539C188.851 11.2362 190.31 9.55066 192.658 9.76518Z" fill="#FFFCC9"/>
<path fill-rule="evenodd" clip-rule="evenodd" d="M180.443 14.5249C180.205 12.5805 179.975 10.8931 179.753 9.46265C179.419 7.31702 177.272 7.46007 176.569 8.56864C175.865 9.67721 177.043 10.5712 178.053 12.7026C179 14.6518 180.402 19.3946 180.443 14.5249Z" fill="#FFFCC9"/>
<path fill-rule="evenodd" clip-rule="evenodd" d="M148.929 10.8402C149.033 10.1853 149.666 8.99435 151.048 8.26385C152.431 7.53336 154.474 7.19819 154.96 7.02957C155.143 6.55097 151.335 3.93127 149.484 3.83051C147.632 3.72975 141.999 4.561 140.565 5.87086C139.131 7.1807 139.261 7.33185 142.051 6.90363C144.842 6.47539 147.111 7.98676 146.485 9.12029C146.068 9.87597 146.241 10.3378 147.006 10.5057C147.041 10.5057 148.303 10.6723 148.929 10.8402Z" fill="#FFFCC9"/>
<path fill-rule="evenodd" clip-rule="evenodd" d="M131.32 17.5631C131.209 12.8523 131.167 9.98535 131.195 8.96243C131.237 7.42803 127.809 8.4375 127.014 9.24508C126.22 10.0527 129.272 13.5656 130.108 17.119C130.944 20.6723 131.362 20.2281 131.32 17.5631Z" fill="#FFFCC9"/>
<path fill-rule="evenodd" clip-rule="evenodd" d="M109.749 19.5827C109.706 19.0833 109.663 14.713 111.343 13.7973C113.024 12.8816 115.566 10.6756 111.085 11.4664C106.604 12.2573 106.776 14.2967 107.293 17.3768C107.81 20.4568 109.103 24.7438 109.749 19.5827Z" fill="#FFFCC9"/>
<path fill-rule="evenodd" clip-rule="evenodd" d="M96.0623 24.503C95.8727 23.908 96.2044 16.0362 96.2518 13.9767C96.2992 11.9172 92.8877 12.0545 92.3665 13.1071C91.8453 14.1597 93.3615 15.9904 93.788 18.233C94.2144 20.4755 96.0149 30.4985 96.0623 24.503Z" fill="#FFFCC9"/>
<path fill-rule="evenodd" clip-rule="evenodd" d="M77.5829 23.2217C76.5412 23.9052 74.9687 24.4556 72.856 24.5512C70.7433 24.6468 68.541 24.4015 66.2588 24.137L66.259 30.9782C71.3815 31.658 75.1664 31.4292 77.6302 30.6359C81.3259 29.446 77.7724 28.9425 75.2138 28.2103C72.6552 27.478 72.6552 27.478 77.5829 23.2217Z" fill="#FFFCC9"/>
<path fill-rule="evenodd" clip-rule="evenodd" d="M78.1993 14.4806C79.0206 14.7247 79.8576 15.579 80.7105 17.0436C81.9898 19.2404 83.4112 20.888 83.3164 17.0436C83.2217 13.1992 81.516 11.5058 78.7205 11.2312C75.925 10.9566 73.1769 12.5584 74.1719 12.9246C75.1669 13.2907 76.541 13.4738 78.1993 14.4806Z" fill="#FFFCC9"/>
<path fill-rule="evenodd" clip-rule="evenodd" d="M50.0507 9.3831C50.1664 8.65665 51.0342 5.69491 54.9681 5.02433C58.9021 4.35376 61.2162 6.36549 60.6377 8.48899C60.0592 10.6125 59.0178 10.0537 55.431 9.3831C51.8441 8.71253 48.4886 12.5684 50.0507 9.3831Z" fill="#FFFCC9"/>
<path fill-rule="evenodd" clip-rule="evenodd" d="M42.6457 26.9856C42.6457 26.2033 43.282 17.1504 42.7035 12.3446C42.125 7.53879 41.4308 5.63882 39.753 6.19763C38.0753 6.75645 36.9182 8.87995 38.4803 12.4005C40.0423 15.921 40.3894 21.2857 41.0836 25.7004C41.7779 30.115 42.4721 32.7414 42.6457 26.9856Z" fill="#FFFCC9"/>
<path fill-rule="evenodd" clip-rule="evenodd" d="M10.4584 16.2095C9.62279 16.293 9.89652 16.8218 11.2796 17.7959C13.3541 19.2571 15.5584 19.5075 17.633 22.0124C19.7075 24.5173 20.7448 26.7299 20.7448 28.7338C20.7448 30.7377 21.177 33.7019 21.4796 31.3222C21.7821 28.9425 22.3007 24.6843 21.6092 23.0561C20.9177 21.4279 18.238 18.5473 17.3304 18.4221C16.7253 18.3386 15.933 18.1299 14.9533 17.7959C14.7516 17.7402 13.2533 17.2114 10.4584 16.2095Z" fill="#FFFCC9"/>
<path fill-rule="evenodd" clip-rule="evenodd" d="M10.2791 9.95118C9.47661 10.2349 7.76765 11.0516 6.84135 12.6409C5.91505 14.2302 5.91838 15.4999 8.42516 13.5378C10.9319 11.5757 15.8158 13.2038 15.5997 11.1582C15.3836 9.11254 12.9138 9.27468 10.2791 9.95118Z" fill="#FFFCC9"/>
<path fill-rule="evenodd" clip-rule="evenodd" d="M52.9447 0.108424C49.8478 0.857161 47.5012 3.10701 46.2864 6.73925C45.8696 7.98579 45.832 8.07987 45.752 8.07987C45.7133 8.07987 45.6637 7.99999 45.6419 7.90243C44.4034 2.38836 43.204 1.09843 39.5063 1.30418C36.965 1.44558 35.9839 1.71324 35.0333 2.5654C33.7574 3.70918 33.6715 5.18663 33.6194 6.99837C33.5656 8.87454 34.248 17.441 34.5364 20.5978C34.7348 22.7675 35.6069 28.3203 34.5516 29.4898C33.8645 30.2512 33.0929 26.3951 32.6987 15.5716C32.6096 13.121 32.498 10.0691 32.4509 8.78961C32.3253 5.36479 32.1292 2.14586 32.0406 2.04247C31.9607 1.94957 20.8472 4.8466 20.7999 4.8466C20.6495 4.8466 20.4937 7.76442 20.3618 7.76442C20.2816 7.76442 18.8335 6.78821 18.1847 6.47262C16.336 5.57337 9.95669 4.83676 4.42052 8.68658C1.85823 10.4684 0.752362 14.2766 0.751953 15.8476C0.751464 18.0476 1.36946 20.1252 3.42906 21.9744C3.23413 22.1958 2.09445 22.9312 1.87989 23.4709C0.923367 25.8769 1.21819 27.9788 3.73888 30.5338C10.1049 36.9864 17.4283 39.0109 20.7134 35.3262C21.2527 34.7212 21.9868 33.5313 22.3995 31.7172C23.9318 38.4971 29.7931 43.2141 36.9838 43.2872C42.0406 43.3385 44.6621 39.7515 45.2564 37.7764C45.8508 39.572 49.7679 44.7003 54.8601 45.0174C62.9987 45.5242 65.0195 40.6286 66.1411 36.4696C66.2522 36.0575 66.3641 35.6672 66.3896 35.6022C66.5056 35.3057 66.5623 36.1 66.6516 39.2735C66.7703 43.4984 67.0363 43.2231 67.1927 43.2231C73.3894 42.864 78.435 40.0979 79.0283 39.6917C79.0638 39.6447 78.0978 33.1714 78.1822 33.1045C78.2442 33.0558 82.4314 31.5968 83.5129 30.7737C88.1801 27.2219 88.2574 24.9645 88.2954 24.9268C88.3858 24.8371 88.4328 25.2387 88.5387 27.0064C88.8859 32.8018 89.8271 34.8135 92.1906 34.8135C93.1172 34.8135 94.7623 34.3624 96.1496 33.7447C97.8311 32.9962 99.6495 31.4539 100.34 30.1306C100.66 29.5173 100.345 27.0064 100.441 27.0064C102.731 30.2734 106.829 29.6235 109.849 28.9296C112.514 28.3174 117.696 26.9405 120.685 23.9548C122.466 22.1754 121.946 20.1427 121.794 19.9076C121.461 19.3902 120.702 18.8896 119.751 18.6744C119.735 18.6283 121.442 17.3074 121.747 17.0275C122.051 16.7474 122.322 16.5184 122.348 16.5182C122.375 16.518 122.419 17.3253 122.447 18.312C122.586 23.3614 123.329 24.6404 126.314 24.9649C127.269 25.0686 129.354 24.9681 130.586 24.759C132.349 24.4595 134.099 23.5526 134.675 22.6397C134.852 22.3608 134.871 21.9713 134.754 21.0918C134.416 18.561 134.444 18.4164 135.055 19.5282C136.589 22.319 141.048 24.6834 146.318 24.5842C153.048 24.4576 155.193 22.9608 156.959 21.2526C157.678 20.5567 158.521 19.3995 158.886 18.67C159.78 22.3765 162.903 26.2069 168.244 27.5303C175.027 29.2114 178.736 27.1511 180.201 26.4544C180.861 26.1401 181.645 25.5544 181.689 25.5544C182.511 27.3563 183.953 28.5556 185.886 29.9091C189.599 32.5075 195.905 33.5462 198.907 32.8693C201.644 32.2523 203.073 30.5951 203.66 27.1304C204.364 22.981 200.798 19.0536 200.798 18.9794C200.798 18.9051 201.392 17.2729 202.117 15.3521L203.438 11.86L203.159 11.5783C202.736 11.1517 201.329 9.98364 200.595 9.45C197.483 7.19048 193.645 5.87177 190.184 5.87177C188.411 5.87177 187.418 5.99347 185.96 6.83252C184.704 7.55573 183.831 8.94615 183.755 8.93164C183.465 7.13225 182.204 5.55902 181.031 4.89824C180.145 4.39914 178.102 3.94324 175.857 3.74357C173.494 3.53356 172.146 4.15056 171.975 5.85924C171.759 8.03665 172.741 12.6169 172.74 14.8619C172.74 17.5974 172.27 18.8334 171.192 18.0929C170.561 17.6603 170.385 12.6471 170.663 3.05363L159.206 3.07224C158.789 7.04842 158.549 9.02611 158.484 9.0053C158.433 8.98904 157.594 7.71529 157.484 7.58849C157.229 7.29521 157.23 7.1091 157.487 6.97583C157.851 6.78813 157.741 6.59895 156.691 5.59562C154.949 3.93016 153.33 3.05118 151.079 2.54663C150.051 2.31636 147.793 2.26446 146.302 2.43693C143.668 2.74189 141.119 3.58971 139.206 4.79739C137.055 6.15559 135.437 7.94047 134.332 10.6034C134.292 10.6034 134.229 4.44732 134.193 4.39307C134.398 4.28204 122.813 6.40937 122.742 6.48049C122.708 6.51433 122.598 8.25178 122.564 8.28475C122.004 7.92261 120.916 7.62937 119.361 7.32194C113.629 6.18933 106.166 8.38123 103.93 9.82962C99.9692 12.3955 99.6809 16.3602 99.6464 16.3602C99.5576 16.3602 99.4961 15.2728 99.3897 11.8257C99.3266 9.78356 99.2679 8.81052 99.2051 8.77076C99.1547 8.73875 92.9612 9.27001 88.0916 8.59246C87.7489 8.92047 88.1439 15.7245 87.7136 14.5841C85.9977 10.0374 82.0562 7.07267 76.1719 5.51447C71.8702 4.37536 65.5425 4.18495 65.4951 4.31429C65.4753 4.36853 65.5065 7.32691 65.0278 6.64122C64.5356 5.9358 63.409 4.59596 62.7758 3.9628C61.0464 2.23324 55.826 -0.588169 52.9447 0.108424ZM62.6071 7.3099C62.6071 7.47606 60.9102 17.6277 60.8101 17.6648C60.5043 17.447 59.3618 17.0291 58.0474 16.209C57.4183 15.8166 54.7409 13.8679 54.7409 15.6639C54.7409 16.0417 58.6157 18.2226 59.3945 18.721C62.8228 20.9149 64.95 25.2874 64.7759 31.7908C64.6093 38.02 61.2412 41.7505 56.6874 42.1284C51.7795 42.5356 48.0536 37.4689 47.5492 35.023C47.0907 32.7988 47.1145 27.4233 49.2844 26.5234C50.1842 26.1502 50.1942 26.28 53.2549 28.2873C53.7006 28.5796 57.3202 30.3899 56.9452 28.8627C56.6974 27.8533 53.9236 26.9503 50.6238 24.8301C48.6421 23.5565 46.4327 18.5082 47.022 11.5103C47.4521 6.40231 50.0817 3.35659 53.7612 3.00741C59.682 2.44549 62.6071 7.06425 62.6071 7.3099ZM154.087 6.60939C154.087 6.67745 154.338 6.80194 153.711 7.33563C154.024 8.23239 155.433 8.8176 155.95 9.5853C156.761 10.7899 157.179 12.1082 157.181 14.3407C157.12 18.2377 155.499 19.9604 151.52 21.0726C147.158 22.2916 143.899 21.5281 142.057 21.0134C138.244 19.948 136.215 16.2886 137.17 11.5721C137.878 8.07982 141.604 5.53497 146.13 5.03583C150.783 4.52264 153.147 5.93611 154.087 6.60939ZM41.0874 4.3281C42.5954 4.71584 43.01 6.1714 43.6453 8.98585C44.2321 11.586 44.7512 15.1574 45.0086 19.0415C45.1465 21.1201 45.5056 27.1047 45.3686 28.5837C44.704 35.7597 40.7319 41.361 33.7926 39.4522C30.4208 38.5247 29.0573 37.2844 27.1622 34.5441C25.1311 31.6071 23.7791 27.0088 23.3822 21.0766C23.0485 16.0887 22.8464 7.4584 23.0725 6.89092C24.7177 6.44653 28.6454 5.39289 29.8889 5.21496C30.0465 5.21694 30.0456 6.56495 30.3225 14.1933C30.6436 23.0364 30.9898 25.0492 31.252 27.122C31.7184 30.8085 32.9151 32.3335 34.3292 32.4324C35.4457 32.5105 36.6228 31.2867 37.0149 29.7556C37.3099 28.6039 36.8447 20.9597 36.3725 16.794C36.1072 14.4538 35.7123 6.50033 35.8376 6.17266C36.3643 4.79538 36.7865 4.26019 39.5962 4.22926C40.2845 4.2217 40.8089 4.2564 41.0874 4.3281ZM168.697 5.76394C168.555 9.12329 168.768 16.1637 168.785 16.9732C168.84 19.4666 170.245 20.6076 172.39 20.6247C174.8 20.644 175.36 18.4862 175.096 13.8992C175.01 12.3781 174.357 9.12626 174.357 7.3215C174.357 6.34121 174.494 5.57539 177.63 6.09777C180.949 6.6505 181.326 7.46587 182.065 12.1145C182.273 13.4242 183.093 20.1417 180.164 23.3322C178.437 24.876 175.757 25.82 171.698 25.2524C164.508 24.2476 162.055 21.1634 161.253 17.198C160.773 14.8246 161.308 5.83996 161.506 5.48249C163.163 5.46163 167.949 5.7051 168.697 5.76394ZM132.653 21.1343C132.299 21.614 129.7 22.8552 126.731 22.1684C125.024 21.7736 124.889 21.5848 124.919 16.4112C124.937 13.3543 125.196 9.25776 125.211 8.05753C125.239 8.03079 129.63 7.16635 132.301 6.52822C132.248 13.9066 132.852 20.8636 132.653 21.1343ZM78.7184 9.04572C81.7125 9.96879 86.2158 13.7392 86.4023 20.538C86.4918 23.7981 85.4663 25.9488 83.5518 27.6607C81.857 29.1764 75.3482 31.0464 75.3103 31.1921C75.2644 31.3684 75.8984 38.0508 75.8061 38.1355C75.3737 38.5501 69.8079 39.7038 69.6714 39.572C69.1981 37.9179 69.1756 31.3119 69.1137 31.2521C69.2159 31.291 66.939 31.0382 66.8828 30.7732C66.7999 30.3817 66.6959 24.3826 66.7753 24.2586C66.823 24.1839 69.0621 24.5107 69.0955 24.4265C68.1283 17.3028 68.1174 7.55375 68.1841 7.48948C68.394 7.28665 74.3483 7.69838 78.7184 9.04572ZM18.412 9.50406C18.4108 9.84205 16.8651 17.846 16.7808 17.9274C16.755 17.9524 11.766 16.0448 10.8371 16.0448C10.3588 16.0448 10.1644 16.1796 10.1644 16.5113C10.1644 16.9169 10.4362 17.0468 12.3279 17.5454C15.7792 18.4548 18.0905 19.8359 19.3782 21.758C20.5468 23.5022 21.1601 26.3432 20.9477 29.0268C20.7077 32.0592 19.6583 33.208 17.5574 33.7447C14.8256 34.4428 12.4307 33.7986 8.94409 31.3717C5.71676 29.1255 3.43778 26.7783 4.35856 24.7876C4.89917 23.6189 6.35538 23.2376 8.02798 24.1161C10.5255 25.4277 11.3181 25.7447 12.1019 25.7447C12.3966 25.7447 12.4658 25.0105 11.6004 24.6066C11.1758 24.4084 6.31984 21.737 5.53591 21.0168C4.08545 19.6844 3.24641 18.5391 3.24315 16.4677C3.23964 14.2806 4.57227 11.7554 6.15558 10.3027C7.66562 8.91715 13.7036 6.22431 18.412 9.50406ZM191.409 8.13735C194.67 8.46903 197.171 9.41856 199.431 11.3497C200.294 12.0852 200.91 12.8109 200.487 13.9502C200.157 14.8389 198.885 17.8527 198.746 18.1823C197.868 17.8769 195.098 16.0179 193.761 15.3562C192.831 14.8955 192.359 14.7957 192.205 15.0271C191.955 15.4008 192.366 15.743 194.145 16.6386C196.667 17.9088 198.376 19.5166 199.59 20.7827C200.522 21.756 200.795 23.0212 200.905 24.3427C201.216 28.1077 199.792 30.059 197.941 30.442C195.754 30.8944 192.043 29.81 189.049 28.3881C185.722 26.808 183.805 24.6156 183.807 22.9244C183.682 19.2253 186.378 19.8289 187.009 20.1251C187.396 20.3061 188.56 21.0041 189.597 21.6761C191.573 22.9564 192.156 23.2835 192.85 23.4978C193.43 23.6776 193.729 23.6354 193.761 23.3697C193.794 23.0941 193.55 22.9033 192.249 22.1916C189.057 20.4437 187.583 19.4604 186.507 18.3612C184.876 16.6961 184.496 15.1923 184.704 13.0323C185.066 9.2599 187.209 7.71008 191.409 8.13735ZM118.565 9.48883C119.938 9.70512 122.276 10.8652 121.483 13.7168C121.197 14.7479 116.468 17.49 116.178 17.5603C116.084 17.583 111.972 16.5324 111.972 16.4432C111.972 16.4113 113.441 14.4165 113.441 14.1986C113.441 13.7941 112.367 13.7014 111.654 14.0445C110.414 14.6412 109.749 16.8796 109.875 20.0272C109.964 22.2447 110.454 23.1341 111.591 23.1405C112.324 23.1446 114.322 22.2785 115.525 21.4349C116.956 20.4318 119.273 19.1681 119.494 20.5711C119.743 22.1522 116.976 24.0707 116.178 24.4148C110.002 27.0794 108.387 27.2099 105.965 27.0412C103.417 26.8637 101.977 25.164 101.787 20.8273C101.613 16.8643 102.23 14.6754 104.24 12.7559C105.949 11.124 107.999 10.2567 111.668 9.68101C113.992 9.31636 116.825 9.21462 118.565 9.48883ZM65.9667 21.2101L65.0212 21.2185C64.0278 19.7651 63.5334 18.9476 63.5381 18.7656C63.5425 18.592 65.4852 8.56896 65.5227 8.60531C65.5476 8.62949 65.6956 12.8311 65.9667 21.2101ZM146.274 9.19606C145.876 9.38642 145.372 9.95548 145.11 10.5103C144.554 11.6904 144.294 13.7061 144.445 15.6505C144.626 17.971 145.255 18.8839 146.671 18.8839C148.258 18.8839 149.131 17.5312 149.332 14.7655C149.375 14.1685 149.295 12.3603 149.152 10.5103C149.123 10.1336 149.2 10.2929 148.93 10.4117C148.68 10.5218 148.469 10.3913 148.467 10.0727C148.465 9.74255 148.207 9.25993 147.97 9.14149C147.61 8.96169 146.703 8.99087 146.274 9.19606ZM97.399 11.0289C97.4438 11.0832 98.5098 28.4923 98.1902 29.1166C97.6271 30.2169 94.332 32.3206 92.4357 31.7176C91.4368 31.3998 91.3465 29.3836 91.0431 27.1693C90.8457 25.73 90.4475 19.1876 90.3135 11.5387C90.6767 11.1776 91.6408 11.3034 93.3641 11.2825C95.3954 11.2578 97.312 10.9236 97.399 11.0289ZM20.7332 20.0483C20.4988 19.6848 19.6014 18.9088 18.9817 18.3158C18.9817 18.2614 20.3675 11.4078 20.4507 11.5531C20.4869 11.6163 20.7885 19.8664 20.7332 20.0483ZM75.3439 16.0849C75.2956 16.2067 75.6878 23.4673 75.7712 23.9899C75.8074 24.2175 75.8412 24.2463 76.0736 24.2466C76.7908 24.2478 77.7567 23.62 78.1286 22.9108C78.5297 22.1463 78.6146 21.6939 78.618 20.3033C78.6205 19.2939 78.5887 18.8871 78.4761 18.4894C78.1398 17.301 77.5452 16.6082 76.5583 16.2551C75.782 15.9774 75.4075 15.9249 75.3439 16.0849Z" fill="#13354E"/>
<path fill-rule="evenodd" clip-rule="evenodd" d="M143.649 26.0937C140.537 26.1986 135.86 26.6192 132.382 27.1066C129.077 27.5698 127.517 27.8351 127.393 27.9553C127.341 28.0053 127.281 30.8982 127.227 35.9115C127.165 41.6989 127.118 43.8124 127.048 43.8772C126.996 43.9258 124.521 44.3561 124.443 44.3948C124.32 44.4548 124.271 46.1235 124.236 46.1445C124.155 46.1924 122.912 45.4252 122.912 45.3278C122.912 45.2739 124.304 41.0019 127.089 32.512C124.887 31.2491 122.269 30.4055 119.235 29.9812C114.351 29.2981 109.336 30.7096 106.532 31.7251C101.097 33.6939 95.4774 38.9865 93.2712 45.0904C93.203 45.0904 92.8615 37.9607 92.8461 37.9457C84.4479 41.6054 74.672 44.6961 74.614 44.7425C74.4271 45.5364 74.5467 45.2165 73.4851 44.9419C72.4273 44.6682 71.9954 44.7074 69.6287 45.2912C64.7058 46.5055 60.237 47.1755 55.6798 47.2881C48.0084 47.4776 41.5637 45.0167 41.5436 45.0361C41.5236 45.0556 41.3489 51.5129 41.3418 52.2166C41.5737 52.3188 43.3087 52.8281 43.425 52.8763C43.3632 56.3316 43.5773 60.1486 45.3645 61.545C46.8839 62.9483 49.6992 64.1696 53.5162 65.0818C57.6084 66.0597 62.5682 66.8091 63.3127 64.245C63.5563 63.4058 62.8613 61.4137 63.0071 61.4161C70.2852 62.7872 73.3552 61.133 73.3552 57.5475C73.2262 55.0688 71.6468 54.6332 71.6446 54.586C71.6426 54.5388 74.6005 53.3642 74.6336 53.3962C74.9249 59.5945 75.077 63.9543 76.4396 65.7517C80.4809 71.0821 88.6827 70.2608 89.6714 70.1845C91.8461 70.0168 93.5664 69.3604 94.6481 68.2856C95.0995 67.837 95.2778 67.2271 95.3125 67.2271C95.6051 67.5385 98.3241 68.9264 99.6971 69.5938C104.108 71.7379 109.081 72.2835 113.083 71.8739C118.761 71.2927 122.615 69.1246 125.506 64.8856C126.022 64.1272 127.13 61.13 127.23 61.8706C127.463 63.5901 128.498 65.7938 129.283 66.8199C131.005 69.0712 134.468 69.4416 139.444 67.9069C141.198 67.3658 143.361 66.5733 145.243 65.2606C146.603 64.3123 147.037 63.9463 147.351 61.8667C147.45 61.8667 147.414 64.6562 147.521 64.6961C147.59 64.7215 155.38 61.929 157.447 61.3637C160.31 60.5807 166.438 59.7249 166.502 59.7071C166.6 59.6792 166.468 40.3822 166.421 39.6883C166.226 36.843 165.734 34.8912 164.737 33.0033C162.956 29.6305 159.642 27.3404 155.242 26.4416C152.505 25.8825 150.225 26.4699 148.409 28.2025C147.809 28.7754 147.486 29.2129 147.134 29.931C146.876 30.4573 146.93 33.2356 146.98 33.7344C147.106 34.9856 147.279 39.0459 147.214 39.209C147.187 39.2786 146.91 39.3069 146.384 39.2941C146.276 30.6877 146.21 26.3445 146.188 26.2643C146.13 26.054 144.173 26.076 143.649 26.0937ZM155.436 28.9605C157.949 29.4539 160.115 30.9666 161.405 32.4102C162.951 34.14 163.303 35.6215 163.533 38.701C163.643 40.1678 163.592 57.9558 163.469 58.0713C158.153 58.534 150.355 61.0227 150.315 61.0609C150.273 61.0359 150.069 49.9712 150.021 49.9427C149.945 49.8972 144.111 51.1418 144.079 51.1912C144.007 51.3016 144.794 60.9683 144.499 61.4936C144.164 63.4068 140.947 64.6529 139.444 65.1493C137.793 65.6945 135.624 65.9308 134.489 65.7559C132.106 65.389 130.892 64.0286 130.261 61.0201C129.926 59.4195 129.69 56.584 129.689 54.1442C129.689 53.2467 129.656 52.493 129.616 52.4695C129.576 52.4458 127.285 52.5788 127.241 52.5357C127.201 52.4961 127.074 46.2837 127.153 46.2367C127.208 46.2035 129.59 45.7173 129.688 45.6029C129.78 45.4959 129.971 30.933 130.001 30.738C132.966 29.8927 143.212 28.7398 143.452 28.9306C143.515 28.9801 143.556 30.9673 143.589 35.5585C143.628 40.8551 143.658 42.134 143.745 42.2115C143.83 42.287 149.877 41.8058 149.914 41.7494C150.036 41.5643 149.835 35.6205 149.595 32.3336C149.47 30.6097 149.542 30.4102 150.549 29.7027C151.861 28.7809 153.361 28.5532 155.436 28.9605ZM119.493 32.4725C120.715 32.6446 123.452 33.712 123.526 33.7684C123.815 33.9916 120.015 45.6333 119.973 45.6733C119.927 45.7178 114.316 44.5927 111.482 44.5837C109.37 44.577 108.844 44.6576 108.467 45.045C108.194 45.3253 108.192 45.7704 108.461 45.9661C108.734 46.1641 109.779 46.2589 111.809 46.2695C117.195 46.2976 121.191 47.4523 123.255 49.5771C124.906 51.2763 125.633 53.7047 125.438 56.8655C125.057 63.0196 121.055 67.6169 114.666 68.815C103.443 70.9194 95.9591 64.5565 95.0237 62.7201C94.736 62.1553 94.702 62.0236 94.678 61.3795C94.5993 59.2764 95.7277 57.4638 97.6178 56.6575C99.0188 56.0599 100.809 56.1247 104.134 56.8939C107.204 57.6039 107.869 57.7216 109.059 57.7658C109.975 57.7996 111.943 57.5937 111.583 56.7144C111.465 56.4255 110.565 56.2763 108.216 56.0138C104.48 55.596 102.291 55.1978 100.557 54.6206C98.1983 53.8349 95.7457 52.1412 96.0474 48.2341C96.4693 42.77 100.382 38.0648 105.565 35.2753C112.926 31.3138 118.197 32.2901 119.493 32.4725ZM90.3473 42.7494C90.7665 58.4695 92.8634 65.5669 92.2819 66.4797C91.8948 67.087 88.7047 68.5085 82.2228 66.3551C77.1495 64.6696 77.3847 61.3746 77.2216 49.6532C77.1563 47.9736 77.1254 46.918 77.1287 46.4865C84.02 44.7406 90.2829 41.5827 90.3473 42.7494ZM73.5178 48.355C73.7199 51.4297 73.3622 51.3197 72.9645 51.7307C71.6079 53.1315 69.192 53.5812 62.7657 53.6292C61.0052 53.6423 59.548 53.6694 59.5279 53.6893C59.5076 53.7092 59.5881 55.4253 59.782 55.4723C60.0983 55.549 69.0601 55.2712 69.2723 55.3326C69.6651 55.4462 70.7013 56.8044 70.7016 57.3926C70.7028 59.6986 69.351 60.1412 65.1353 59.8775C64.2551 59.8223 59.606 59.3016 59.7833 59.3169C59.7972 59.4284 60.5861 63.1361 60.4281 63.3032C59.8966 63.8648 57.5912 63.4754 55.3987 63.054C51.0514 62.2182 49.1213 61.2241 47.274 59.6908C45.681 58.3682 45.804 51.7949 45.7975 51.5446C45.1322 51.3303 43.9426 50.9708 43.7276 50.9087C43.7321 50.3581 43.383 48.536 44.2434 48.791C45.2238 49.0815 47.4812 49.316 48.7571 49.4761C54.4948 50.1955 62.9333 49.4264 70.0359 47.7321C73.1441 47.0177 73.4674 47.5871 73.5178 48.355ZM95.4803 55.0778C95.4803 55.1305 94.1119 56.1811 94.075 56.1456C93.9967 56.07 93.7534 53.5325 93.8153 53.4359C93.8933 53.314 95.4803 55.025 95.4803 55.0778Z" fill="#13354E"/>
</svg>
