<svg width="66" height="54" viewBox="0 0 66 54" fill="none" xmlns="http://www.w3.org/2000/svg">
<path fill-rule="evenodd" clip-rule="evenodd" d="M13.8126 1.95061C12.1645 2.19157 6.64965 5.79462 5.5552 6.89524C3.37324 9.0894 3.27608 12.5136 3.26389 15.8736C3.25575 18.1141 4.36824 19.1651 5.36374 20.66C7.01838 23.1448 12.4754 24.4313 12.7318 24.5484C13.4958 24.8976 18.8 25.8502 17.7899 26.0665C16.8224 26.2735 14.4284 25.5376 10.5701 24.2448C7.26598 23.1376 5.22879 22.8642 4.215 22.8568C2.66965 22.8456 2.63234 24.8566 2.18308 26.2834C0.778195 27.8505 2.21677 31.1463 3.06756 32.8583C4.18709 35.1113 7.26948 37.2695 11.116 38.4935C13.6688 39.3055 16.0063 40.9382 19.1734 40.9438C25.7376 40.9551 30.3832 37.6273 32.7371 33.9973C34.0433 31.983 34.6186 28.7671 34.1048 26.3512C33.1084 21.6646 30.144 18.1978 20.9892 16.0905C18.2377 15.4572 16.8593 15.2484 16.8593 14.7085C16.8593 14.2149 17.5755 14.3979 18.4817 14.5291C20.4442 14.8134 25.8879 17.0283 27.875 17.9075C28.3786 18.1302 28.8145 18.2884 28.8439 18.2591C28.8732 18.2297 29.9588 16.2243 31.0191 13.4013L33.9588 9.10729L31.6667 7.25195C29.6325 5.96355 26.062 2.89206 22.9778 2.51448C21.2181 2.29918 15.2864 1.73497 13.8126 1.95061Z" fill="#FAE998"/>
<path fill-rule="evenodd" clip-rule="evenodd" d="M44.3473 9.01044C38.8389 9.11994 33.2958 16.7582 33.2491 16.8046C33.218 16.8355 33.8906 17.6622 35.2669 19.2847L36.0741 20.3981L38.2937 19.5377L40.0089 27.7874C39.7899 33.148 36.2931 37.4394 36.4777 39.0738C36.843 42.3078 32.0039 45.3171 33.7747 46.3997C35.1137 47.2181 36.5747 51.3779 44.9527 51.4737C47.5333 51.5701 50.0084 51.2438 51.4098 50.3096C52.8333 49.3611 51.5053 45.307 51.3089 42.2623C51.2166 40.8306 50.7557 38.713 50.7036 37.8085L50.3504 34.7718C51.6667 34.7524 54.3311 34.7913 55.6474 34.7718L58.9768 34.62L60.3389 34.0633C61.5633 33.4601 60.8453 33.3338 61.146 31.7351C61.5415 29.6319 62.0279 28.578 61.0451 27.6862C60.7161 27.3878 60.9946 25.282 59.3804 24.2952C57.332 24.3982 56.1609 23.9915 55.496 23.9915L52.7214 23.9409L49.1902 23.3336L51.7277 23.2018L56.5232 23.2176C61.4274 23.234 62.4342 23.1391 63.8611 22.5254C65.9352 21.6336 64.7906 21.2608 64.7906 17.8162C64.7906 15.9683 64.4043 14.6735 63.5674 13.7173C63.0716 13.1508 61.5197 10.4041 60.3389 10.4276C54.2503 7.7214 49.8557 8.90077 44.3473 9.01044Z" fill="#FAE998"/>
<path fill-rule="evenodd" clip-rule="evenodd" d="M5.99791 7.64893C4.57463 12.4087 5.23883 16.3832 7.99051 19.5723C12.118 24.356 16.1033 24.7129 17.0996 25.3555C18.0959 25.9981 18.4517 26.2123 15.107 25.5697C11.7622 24.9271 7.99051 23.4278 5.85559 21.2858C3.72065 19.1439 2.79552 14.5745 3.436 11.79C4.07647 9.00548 4.07647 9.00548 5.99791 7.64893Z" fill="#C5A218"/>
<path fill-rule="evenodd" clip-rule="evenodd" d="M16.5995 14.7889C15.6507 14.1702 16.4572 13.7894 19.0191 13.6466C22.862 13.4324 27.4322 15.2173 28.6975 16.1455C29.541 16.7643 29.5173 17.3593 28.6263 17.9304C27.2505 17.6925 25.8272 17.3355 24.3564 16.8595C22.1503 16.1455 22.1503 16.1455 16.5995 14.7889Z" fill="#C5A218"/>
<path fill-rule="evenodd" clip-rule="evenodd" d="M11.3798 6.20289C14.6648 4.57853 17.8208 4.03708 20.8477 4.57853C25.3881 5.39071 27.5703 6.66195 27.0776 8.92194C26.5848 11.1819 24.0155 9.66348 22.0444 8.92194C20.0734 8.18037 18.1728 7.26226 15.3218 7.58006C12.4709 7.89789 10.6758 8.49817 9.69032 9.09848C8.7048 9.69879 9.05677 7.47413 11.3798 6.20289Z" fill="#FFFCC9"/>
<path fill-rule="evenodd" clip-rule="evenodd" d="M17.4512 15.2393C19.121 17.0104 20.7952 18.3585 22.4739 19.2834C24.9919 20.6707 26.3682 23.1057 26.8611 25.0835C27.3539 27.0612 27.3925 31.0134 28.9521 31.3361C30.5118 31.6588 32.3496 23.3655 30.5922 21.1345C28.8347 18.9035 25.6946 17.3508 22.9249 16.2393C20.1553 15.1279 21.9678 15.9232 17.4512 15.2393Z" fill="#FFFCC9"/>
<path fill-rule="evenodd" clip-rule="evenodd" d="M36.6902 20.2458C36.9913 19.42 37.5935 18.8058 38.4969 18.403C39.8518 17.7988 44.1613 14.9677 48.9488 14.6052C53.7363 14.2427 54.7616 14.3298 57.1403 13.8465C59.519 13.3632 54.4182 10.488 51.2566 9.79316C48.0951 9.09836 46.3556 9.06845 43.1338 10.2768C39.9121 11.4852 39.3701 11.8175 37.2924 13.8415C35.9074 15.1908 34.974 16.2179 34.4922 16.9228C34.9338 17.2651 35.3855 17.7686 35.8472 18.4332C36.5397 19.4301 36.5397 19.4301 36.6902 20.2458Z" fill="#FFFCC9"/>
<path fill-rule="evenodd" clip-rule="evenodd" d="M41.9989 36.9783C41.537 37.5189 41.1906 38.6002 39.4584 40.5311C37.7263 42.462 37.6494 42.8095 38.5347 44.0453C39.42 45.281 42.1144 46.4396 42.9227 44.2384C43.731 42.0372 44.4238 36.9783 44.0004 34.5068C43.577 32.0353 43.1151 34.8157 41.9989 36.9783Z" fill="#FFFCC9"/>
<path fill-rule="evenodd" clip-rule="evenodd" d="M40.2954 23.017C40.928 20.7222 41.7362 19.0311 42.7199 17.9438C43.7036 16.8565 45.3336 15.8046 47.6096 14.7881C44.8007 15.4715 42.6701 16.2045 41.2177 16.9869C39.0391 18.1605 38.9061 18.0814 38.2133 18.6375C37.7513 19.0083 37.9188 19.6525 38.7156 20.57C38.6971 20.5515 39.2237 21.3671 40.2954 23.017Z" fill="#C5A218"/>
<path fill-rule="evenodd" clip-rule="evenodd" d="M46.6152 25.3807C51.1421 24.9914 54.3294 25.2787 56.1772 26.2427C58.0249 27.2067 59.152 28.4672 59.5585 30.0244C59.9834 27.633 60.0389 26.1037 59.7248 25.4363C59.4107 24.7689 57.1749 24.1572 53.0176 23.6011C52.8513 23.6567 50.7172 24.2499 46.6152 25.3807Z" fill="#C5A218"/>
<path fill-rule="evenodd" clip-rule="evenodd" d="M13.7024 0.365062C9.49229 0.898705 4.16891 3.93317 1.95722 10.5726C1.52163 11.8803 0.667499 17.1729 3.92067 21.3366C0.380388 22.6055 0.00935748 27.2849 7.15534e-05 29.018C-0.0349902 35.5621 12.822 44.3384 23.8638 42.3019C32.3521 40.7364 35.9961 35.0092 35.5646 27.6279C35.2141 25.0892 33.887 20.6631 29.962 17.6423C29.962 17.6267 31.1982 14.1481 36.4114 8.86058C31.8966 4.14235 23.4272 -1.11231 13.7024 0.365062ZM32.4855 8.93778C29.5001 12.4598 27.528 16.9514 27.4085 17.0711C27.3796 17.0999 26.8124 16.8994 26.148 16.6253C23.236 15.4241 18.3499 13.8958 16.9946 13.9671C16.1888 14.0095 15.9602 14.3358 16.0128 14.7038C16.0946 15.2768 16.6456 15.4919 19.5602 16.1645C24.0939 17.2111 26.2305 18.6025 28.3938 20.0703C31.5319 22.1998 36.4257 31.4249 27.2508 37.8997C23.9415 40.2351 14.1887 39.8116 7.62105 34.8877C5.47922 33.2819 1.56666 29.7222 3.92603 25.7743C5.1924 23.6553 6.91255 23.5595 12.8217 25.6278C16.2052 26.8121 17.0764 26.8179 17.4856 26.8179C17.8947 26.8179 18.672 26.8179 19.0401 26.3268C19.2856 25.9994 17.8658 25.2852 15.9309 24.8535C8.26104 23.142 6.38294 20.8407 5.00374 17.356C3.60894 13.832 4.69207 10.9074 5.54262 9.16949C6.18103 7.86492 8.35062 3.88459 15.165 3.06818C20.5816 2.67164 26.8709 4.22866 32.4855 8.93778Z" fill="#13354E"/>
<path fill-rule="evenodd" clip-rule="evenodd" d="M43.7605 7.5835C38.6775 8.64603 34.506 11.8388 31.2461 17.1618C34.2891 19.5119 34.7775 20.9804 35.6912 22.6629C36.2359 22.5042 36.5852 22.1368 37.1299 21.9781C38.7299 25.7411 38.8377 29.0194 37.5207 32.7963C35.3289 39.0825 30.0599 41.2392 32.0905 45.8163C35.8491 54.2887 49.4463 54.0749 51.888 52.2805C54.7355 50.1878 53.0633 46.1758 51.4677 35.7573C57.0354 35.7129 54.6418 35.7484 58.4138 35.7969C60.9421 35.8295 62.0424 34.6128 62.188 31.2245C62.252 29.7346 62.0235 25.4971 60.668 24.5565C64.9136 25.5232 65.493 22.6031 65.4579 19.8681C65.4169 16.6704 65.5186 13.0659 63.8516 11.696C57.0675 6.12129 47.0389 6.89818 43.7605 7.5835ZM61.5887 13.5238C62.7354 15.5643 63.7833 21.953 60.584 21.8758C58.2751 21.82 53.1296 19.7843 45.861 23.1075C45.8575 23.1219 46.4035 25.5548 46.4026 25.5776C50.4749 24.3321 54.4786 24.2589 58.4137 25.3581C58.9202 26.3577 59.1267 28.5673 59.1615 29.3669C59.2412 31.1949 59.3106 33.0776 58.1646 33.082C55.1807 33.0937 55.974 32.8341 48.5122 33.0885C48.8735 42.0665 51.7242 48.2141 49.5107 49.5881C46.6662 51.3538 39.1063 49.4587 36.4705 46.5096C33.5551 43.2477 40.1904 38.7334 41.2516 32.7116C42.0594 28.1278 40.8396 22.1521 38.9215 18.2062C38.3203 18.2124 37.376 18.8252 36.7292 19.2273C36.3145 18.1536 35.9754 17.742 34.9806 16.6319C36.1012 15.5223 38.4395 11.993 44.4561 10.2556C50.1927 8.5991 60.02 10.7324 61.5887 13.5238Z" fill="#13354E"/>
</svg>
